<?xml version="1.0" standalone="no"?>
<!DOCTYPE svg PUBLIC "-//W3C//DTD SVG 20010904//EN"
 "http://www.w3.org/TR/2001/REC-SVG-20010904/DTD/svg10.dtd">
<svg version="1.0" xmlns="http://www.w3.org/2000/svg"
 width="512.000000pt" height="512.000000pt" viewBox="0 0 512.000000 512.000000"
 preserveAspectRatio="xMidYMid meet">
<metadata>
Created by potrace 1.14, written by Peter Selinger 2001-2017
</metadata>
<g transform="translate(0.000000,512.000000) scale(0.100000,-0.100000)"
fill="#000000" stroke="none">
<path d="M2862 4914 c-130 -29 -204 -62 -320 -143 -200 -142 -323 -332 -378
-586 -9 -38 -6 -180 4 -222 5 -24 7 -41 3 -40 -3 2 -24 12 -46 22 -103 46
-378 187 -450 230 -44 27 -222 144 -396 260 -174 116 -346 226 -383 244 -193
93 -382 65 -504 -74 -109 -124 -123 -289 -35 -428 51 -81 118 -136 488 -402
379 -272 503 -381 600 -530 164 -250 158 -548 -17 -837 -22 -38 -43 -68 -47
-68 -4 0 -14 -12 -23 -27 -32 -52 -187 -201 -353 -338 -148 -122 -301 -274
-368 -365 -26 -36 -50 -69 -55 -75 -27 -36 -100 -207 -118 -275 -19 -77 -24
-102 -31 -150 -9 -66 -10 -381 -1 -430 16 -90 23 -110 59 -186 101 -213 334
-330 574 -290 62 11 156 59 198 102 117 118 133 281 51 528 -44 132 -36 242
25 367 104 209 294 381 498 450 96 33 240 33 300 1 119 -63 176 -179 239 -482
20 -100 49 -234 68 -315 13 -53 54 -173 78 -225 76 -166 142 -237 293 -320 57
-31 225 -94 225 -84 0 3 10 -1 22 -7 12 -6 74 -13 138 -15 186 -6 326 39 436
139 135 123 149 301 38 474 -47 73 -151 177 -247 248 -83 60 -162 137 -187
183 -9 15 -28 46 -43 69 -15 24 -27 49 -27 56 0 7 -4 17 -9 22 -11 12 -46 122
-62 190 -6 28 -13 59 -15 70 -19 82 -26 397 -12 520 16 145 67 326 119 430 91
180 143 216 469 329 229 79 322 116 425 168 280 142 482 340 622 608 171 329
169 599 -6 767 -172 166 -427 135 -579 -69 -45 -61 -57 -82 -111 -200 -96
-209 -228 -352 -409 -443 -68 -34 -166 -70 -218 -79 -16 -3 -40 -8 -54 -11
-14 -3 -67 -8 -119 -12 -103 -7 -109 -1 -43 41 49 32 165 147 214 214 132 178
190 408 151 597 -41 197 -183 348 -374 398 -72 18 -217 19 -297 1z m259 -206
c315 -145 231 -675 -137 -861 -158 -80 -328 -63 -434 43 -167 167 -127 488 86
695 144 141 339 190 485 123z m-2161 -438 c168 -121 306 -224 308 -229 5 -16
-88 -153 -101 -148 -19 7 -531 380 -535 389 -2 4 -9 8 -15 8 -7 1 -26 13 -43
28 l-32 27 52 72 c28 40 53 73 56 73 3 0 142 -99 310 -220z m3515 -50 c39 -23
72 -44 74 -46 2 -2 -10 -25 -26 -51 -17 -26 -86 -142 -153 -258 -68 -115 -137
-231 -153 -257 l-30 -47 -45 51 c-95 104 -105 58 84 377 91 155 169 279 172
277 4 -2 39 -23 77 -46z m-2822 -454 c146 -105 176 -130 168 -144 -4 -9 -20
-49 -35 -89 l-27 -72 -52 36 c-29 20 -80 57 -114 82 -34 25 -71 53 -83 61 -74
51 -180 133 -180 140 0 4 7 13 15 20 8 7 15 16 15 21 0 5 16 32 36 59 36 51
37 51 58 32 11 -10 101 -76 199 -146z m747 -51 c160 -26 310 -63 385 -94 90
-39 190 -89 247 -124 l68 -42 -6 -110 c-13 -278 -63 -481 -165 -674 l-42 -80
-51 30 c-140 82 -403 196 -417 181 -6 -6 -96 -272 -101 -297 -1 -5 -14 -43
-29 -82 -15 -40 -26 -73 -25 -73 11 0 290 -60 293 -63 2 -3 -10 -67 -28 -143
-39 -177 -37 -168 -38 -177 -2 -17 -354 3 -466 27 -107 22 -281 84 -313 111
-2 2 10 63 27 136 16 74 33 149 36 168 7 32 8 33 44 27 63 -10 96 -17 111 -21
28 -8 95 -19 124 -19 28 -1 31 3 48 54 9 30 44 134 76 230 33 96 58 176 57
178 -4 5 -72 17 -150 27 -22 3 -84 5 -139 6 l-98 0 6 77 c4 42 9 91 11 107 3
17 7 48 10 70 10 74 48 223 72 285 4 8 7 17 8 20 8 33 26 73 73 169 l56 114
140 -6 c78 -4 157 -9 176 -12z m1601 -229 c12 -15 20 -28 18 -30 -2 -2 -172
-66 -377 -143 l-374 -141 7 67 c4 36 7 82 6 101 l-2 35 143 54 c79 30 154 58
168 64 14 6 30 11 35 13 10 2 139 50 165 61 8 3 35 14 60 23 l45 16 43 -47
c23 -26 52 -59 63 -73z m-2444 -1460 l61 -65 -57 -53 c-112 -104 -287 -265
-336 -309 -27 -24 -64 -59 -82 -78 -18 -19 -33 -30 -33 -25 0 5 -4 3 -9 -4 -7
-12 -25 -9 -97 13 -49 14 -96 28 -104 31 -11 4 -2 16 30 45 25 22 65 59 90 82
95 87 287 264 334 307 27 25 67 62 89 83 22 20 43 37 47 37 3 0 34 -29 67 -64z
m1072 -208 c13 -29 64 -138 113 -242 49 -104 85 -192 81 -196 -8 -7 -150 -70
-157 -70 -4 0 -37 65 -116 235 -77 164 -110 237 -110 244 0 5 142 76 160 80 3
1 16 -23 29 -51z m-1611 -513 c2 -2 5 -34 7 -72 4 -80 15 -309 20 -438 2 -49
7 -146 10 -215 l6 -125 -94 -3 c-71 -2 -94 0 -94 10 -2 84 -15 381 -18 408 -2
19 -6 114 -10 210 -4 96 -8 195 -10 220 -1 25 -1 48 1 51 3 6 173 -38 182 -46z
m1967 -176 c28 -45 59 -96 70 -115 11 -18 82 -133 158 -254 75 -121 137 -223
137 -225 0 -7 -138 -95 -149 -95 -10 0 -446 699 -439 705 9 9 144 64 158 65 8
0 38 -37 65 -81z"/>
</g>
</svg>
